<?xml version="1.0" encoding="utf-8"?>
<!-- Generator: Adobe Illustrator 19.2.1, SVG Export Plug-In . SVG Version: 6.00 Build 0)  -->
<svg version="1.1" id="图层_1" xmlns="http://www.w3.org/2000/svg" xmlns:xlink="http://www.w3.org/1999/xlink" x="0px" y="0px"
	 viewBox="0 0 200 200" style="enable-background:new 0 0 200 200;" xml:space="preserve">
<style type="text/css">
	.st0{fill:#47B7F8;}
	.st1{fill:#F7E42F;}
	.st2{fill:#F8B62D;}
	.st3{fill:#FAEE00;}
	.st4{fill:#3E3A39;}
	.st5{fill:#FCEE21;}
</style>
<g id="XMLID_135_">
	<path class="st0" d="M52.4,82.2c-2.1,0-3.8-1.7-3.8-3.8c0-2.1,1.7-3.8,3.8-3.8s3.8,1.7,3.8,3.8C56.3,80.4,54.6,82.2,52.4,82.2
		L52.4,82.2z M52.4,76.4c-1.1,0-1.9,0.9-1.9,1.9c0,1.1,0.9,1.9,1.9,1.9c1.1,0,1.9-0.9,1.9-1.9C54.4,77.3,53.5,76.4,52.4,76.4
		L52.4,76.4z"/>
</g>
<g id="XMLID_134_">
	<path class="st1" d="M59.2,57.4h-1.7v-1.7c0-0.4-0.4-0.8-0.8-0.8c-0.4,0-0.8,0.4-0.8,0.8v1.7h-1.7c-0.4,0-0.8,0.4-0.8,0.8
		c0,0.4,0.4,0.8,0.8,0.8h1.7v1.7c0,0.4,0.4,0.8,0.8,0.8c0.4,0,0.8-0.4,0.8-0.8V59h1.7c0.4,0,0.8-0.4,0.8-0.8
		C60,57.7,59.6,57.4,59.2,57.4L59.2,57.4z"/>
</g>
<g id="XMLID_133_">
	<path class="st1" d="M157,58.6h-1.7v-1.7c0-0.4-0.4-0.8-0.8-0.8s-0.8,0.4-0.8,0.8v1.7H152c-0.4,0-0.8,0.4-0.8,0.8
		c0,0.4,0.4,0.8,0.8,0.8h1.7v1.7c0,0.4,0.4,0.8,0.8,0.8s0.8-0.4,0.8-0.8v-1.7h1.7c0.4,0,0.8-0.4,0.8-0.8
		C157.8,58.9,157.4,58.6,157,58.6L157,58.6z"/>
</g>
<g id="XMLID_132_">
	<path class="st1" d="M157,58.6"/>
</g>
<g id="XMLID_128_">
	<path class="st2" d="M156.9,75.3H155v-1.9c0-0.5-0.4-0.9-0.9-0.9s-0.9,0.4-0.9,0.9v1.9h-1.9c-0.5,0-0.9,0.4-0.9,0.9
		s0.4,0.9,0.9,0.9h1.9V79c0,0.5,0.4,0.9,0.9,0.9s0.9-0.4,0.9-0.9v-1.9h1.9c0.5,0,0.9-0.4,0.9-0.9C157.9,75.8,157.5,75.3,156.9,75.3
		L156.9,75.3z"/>
</g>
<g id="XMLID_125_">
	<path class="st2" d="M64,51.1c0,0.8,0.6,1.4,1.4,1.4s1.4-0.6,1.4-1.4c0-0.8-0.6-1.4-1.4-1.4S64,50.3,64,51.1L64,51.1z"/>
</g>
<g id="XMLID_124_">
	<path class="st2" d="M144,57.4c0,0.7,0.4,1.3,0.9,1.6c0.6,0.3,1.3,0.3,1.9,0c0.6-0.3,0.9-1,0.9-1.6c0-0.7-0.4-1.3-0.9-1.6
		c-0.6-0.3-1.3-0.3-1.9,0C144.4,56.1,144,56.7,144,57.4L144,57.4z"/>
</g>
<g id="XMLID_123_">
	<path class="st2" d="M144,57.4"/>
</g>
<g id="XMLID_120_">
	<path class="st1" d="M129.1,52.8c0,0.7,0.4,1.3,0.9,1.6c0.6,0.3,1.3,0.3,1.9,0c0.6-0.3,0.9-1,0.9-1.6c0-0.7-0.4-1.3-0.9-1.6
		s-1.3-0.3-1.9,0C129.5,51.5,129.1,52.1,129.1,52.8L129.1,52.8z"/>
</g>
<g id="XMLID_116_">
	<path class="st2" d="M108,48.7c-2.1,0-3.8-1.7-3.8-3.8s1.7-3.8,3.8-3.8c2.1,0,3.8,1.7,3.8,3.8C111.9,47,110.1,48.7,108,48.7
		L108,48.7z M108,42.9c-1.1,0-1.9,0.9-1.9,1.9c0,1.1,0.9,1.9,1.9,1.9c1.1,0,1.9-0.9,1.9-1.9C110,43.8,109.1,42.9,108,42.9L108,42.9z
		"/>
</g>
<g id="XMLID_106_">
	<path class="st3" d="M85.4,40.5c-0.3-0.3-0.8-0.3-1.1,0c-0.2,0.2-0.2,0.4-0.2,0.6c0,0.2,0.1,0.4,0.2,0.6l2.6,2.7
		c0.2,0.2,0.3,0.2,0.6,0.2c0.2,0,0.4-0.1,0.6-0.2c0.3-0.3,0.3-0.9,0-1.2L85.4,40.5z M92.2,47.7c-0.2-0.2-0.3-0.2-0.6-0.2
		c-0.2,0-0.4,0.1-0.6,0.2c-0.3,0.3-0.3,0.9,0,1.2l2.6,2.7c0.2,0.2,0.3,0.2,0.6,0.2c0.2,0,0.4-0.1,0.6-0.2C95,51.4,95,51.2,95,51
		c0-0.2-0.1-0.4-0.2-0.6L92.2,47.7z M91.6,44.7c0.2,0,0.4-0.1,0.6-0.2l2.6-2.7c0.2-0.2,0.2-0.4,0.2-0.6c0-0.2-0.1-0.4-0.2-0.6
		c-0.3-0.3-0.8-0.3-1.1,0l-2.6,2.7c-0.3,0.3-0.3,0.9,0,1.2C91.2,44.6,91.4,44.7,91.6,44.7L91.6,44.7z M86.8,47.7l-2.6,2.7
		C84,50.6,84,50.8,84,51c0,0.2,0.1,0.4,0.2,0.6c0.2,0.2,0.3,0.2,0.6,0.2c0.2,0,0.4-0.1,0.6-0.2l2.6-2.7c0.3-0.3,0.3-0.9,0-1.2
		C87.7,47.4,87.2,47.4,86.8,47.7L86.8,47.7z M87.3,46.1c0-0.5-0.4-0.8-0.8-0.8h-3.6c-0.4,0-0.8,0.4-0.8,0.8c0,0.5,0.4,0.8,0.8,0.8
		h3.6C87,46.9,87.3,46.5,87.3,46.1L87.3,46.1z M96.1,45.2h-3.6c-0.4,0-0.8,0.4-0.8,0.8c0,0.5,0.4,0.8,0.8,0.8h3.6
		c0.4,0,0.8-0.4,0.8-0.8C96.9,45.6,96.5,45.2,96.1,45.2L96.1,45.2z M89.5,38.2c-0.4,0-0.8,0.4-0.8,0.8v3.9c0,0.5,0.4,0.8,0.8,0.8
		s0.8-0.4,0.8-0.8V39C90.3,38.6,90,38.2,89.5,38.2L89.5,38.2z M89.5,48.4c-0.4,0-0.8,0.4-0.8,0.8V53c0,0.5,0.4,0.8,0.8,0.8
		s0.8-0.4,0.8-0.8v-3.8C90.3,48.7,90,48.4,89.5,48.4L89.5,48.4z"/>
</g>
<g id="XMLID_145_">
	<g id="XMLID_129_">
		<path class="st4" d="M140.4,74.4h-49c-0.8,0-1.5-0.7-1.5-1.5s0.7-1.5,1.5-1.5h49c0.8,0,1.5,0.7,1.5,1.5S141.2,74.4,140.4,74.4z"/>
	</g>
	<g id="XMLID_148_">
		<g id="XMLID_105_">
			<path class="st5" d="M65.6,86.4h76.3l9.8,19.3c0,0-0.6,10.3-10.8,11.4c-12,1.4-14.3-12-14.3-12s0.3,12.2-11.2,12.2
				S102,105,102,105s-0.1,12.5-11.7,12.5s-13-12.5-13-12.5s-0.4,12.3-10.9,12.3s-11.2-7.2-11.2-7.2L65.6,86.4z"/>
		</g>
	</g>
	<g id="XMLID_149_">
		<path class="st2" d="M138.5,85.3l8.1,20.3c0,0,0.1,5.6-6.1,6.7c-7.3,1.3-10.4-6.7-10.4-6.7l-1.2-2.9l-5.1,0.1
			c0,0-0.4,10.4-9.2,10.4c-9.9,0.1-10.2-10.9-10.2-10.9l-5.3-0.4c0,0-2,11.7-10.1,11.7c-8.8,0.1-9.6-11.8-9.6-11.8l-4.7,0.1
			c0,0-1.3,11.1-8.9,11.1s-8.8-7.9-8.8-7.9l-2.6,5.4l6.9,5.6l7.3,0.1l4-2.1l4.3-7l1.9,3.1c0,0,3.1,3.7,3.3,3.8
			c0.2,0.1,6.8,2.2,6.8,2.2l10.6-4.8l2.7-6.3c0,0,3.9,11.7,11.4,11.2s12.5-9.6,12.5-9.6s7.1,10.3,14.1,9.6c7-0.7,11.2-9.5,11.2-9.5
			L149,96.6l-5.6-11.3L138.5,85.3z"/>
	</g>
	<g id="XMLID_168_">
		<rect x="62.6" y="126.5" class="st5" width="76.9" height="29.7"/>
	</g>
	<g id="XMLID_172_">
		<path class="st4" d="M89.1,117.8c-6.8,0-10.4-4-12-8c-2,4-5.6,7.8-11.7,7.8c-9.2,0-13.2-8.9-14.1-13.5l-0.1-0.4l3.6-8.4
			c0.3-0.8,1.2-1.1,2-0.8c0.8,0.3,1.1,1.2,0.8,2l-3.2,7.6c0.5,2,2.9,10.6,11,10.6c9,0,10.5-10.5,10.5-11l3,0.2c0,0.4,0.3,11,10.2,11
			c10.1,0,11.4-10.7,11.4-11.2l3,0c0,0.4,1,10.9,10.9,10.9c9.9,0,10.8-10.5,10.8-10.9l3,0c0,0.4,1.2,11,11.7,11
			c3.1,0,5.5-0.9,7.3-2.6c2.6-2.7,3-6.7,3-7.8l-9.3-20.9H63.1l-1.8,4.1c-0.3,0.8-1.2,1.1-2,0.8s-1.1-1.2-0.8-2l2.6-5.9h81.8
			l10.3,23.3l0,0.3c0,0.2,0.1,6.2-3.9,10.2c-2.3,2.4-5.5,3.6-9.4,3.6c-7.2,0-11.2-4.1-13.1-8.3c-1.8,4.1-5.6,8.2-12.4,8.2
			c-6.8,0-10.6-4.1-12.5-8.2C100,113.6,96.1,117.8,89.1,117.8z"/>
	</g>
	<g id="XMLID_169_">
		<path class="st2" d="M134.4,130.4v19h-71v9h80v-28C143.4,130.4,134.4,131.4,134.4,130.4z"/>
	</g>
	<g id="XMLID_146_">
		<path class="st4" d="M143.4,158.4h-82v-37c0-0.8,0.7-1.5,1.5-1.5s1.5,0.7,1.5,1.5v34h76v-34c0-0.8,0.7-1.5,1.5-1.5
			s1.5,0.7,1.5,1.5V158.4z"/>
	</g>
	<g id="XMLID_171_">
		<path class="st4" d="M73.4,74.4h-10c-0.8,0-1.5-0.7-1.5-1.5s0.7-1.5,1.5-1.5h10c0.8,0,1.5,0.7,1.5,1.5S74.2,74.4,73.4,74.4z"/>
	</g>
	<g id="XMLID_174_">
		<path class="st4" d="M83.4,74.4h-3c-0.8,0-1.5-0.7-1.5-1.5s0.7-1.5,1.5-1.5h3c0.8,0,1.5,0.7,1.5,1.5S84.2,74.4,83.4,74.4z"/>
	</g>
</g>
</svg>
