<?xml version="1.0" encoding="utf-8"?>
<!-- Generator: Adobe Illustrator 19.2.1, SVG Export Plug-In . SVG Version: 6.00 Build 0)  -->
<svg version="1.1" id="图层_1" xmlns="http://www.w3.org/2000/svg" xmlns:xlink="http://www.w3.org/1999/xlink" x="0px" y="0px"
	 viewBox="0 0 50 50" style="enable-background:new 0 0 50 50;" xml:space="preserve">
<style type="text/css">
	.st0{fill:#949494;}
</style>
<g id="XMLID_6_">
	<path class="st0" d="M25,31.8c-10.4,0-19.4-6.7-22.4-16.7c-0.1-0.3,0.1-0.5,0.3-0.6c0.3-0.1,0.5,0.1,0.6,0.3
		C6.4,24.4,15,30.8,25,30.8c9.8,0,18.3-6.2,21.2-15.6c0.1-0.3,0.4-0.4,0.6-0.3c0.3,0.1,0.4,0.4,0.3,0.6C44.1,25.3,35.2,31.8,25,31.8
		z"/>
</g>
<g id="XMLID_5_">
	<path class="st0" d="M24.5,40.5c-0.3,0-0.5-0.2-0.5-0.5v-8c0-0.3,0.2-0.5,0.5-0.5S25,31.7,25,32v8C25,40.3,24.8,40.5,24.5,40.5z"/>
</g>
<g id="XMLID_4_">
	<path class="st0" d="M4.5,33.7c-0.1,0-0.3,0-0.4-0.1c-0.2-0.2-0.2-0.5,0-0.7l6.2-6.3c0.2-0.2,0.5-0.2,0.7,0c0.2,0.2,0.2,0.5,0,0.7
		l-6.2,6.3C4.8,33.7,4.6,33.7,4.5,33.7z"/>
</g>
<g id="XMLID_3_">
	<path class="st0" d="M44.8,33.7c-0.1,0-0.3,0-0.4-0.1l-6.2-6.3c-0.2-0.2-0.2-0.5,0-0.7c0.2-0.2,0.5-0.2,0.7,0l6.2,6.3
		c0.2,0.2,0.2,0.5,0,0.7C45.1,33.7,44.9,33.7,44.8,33.7z"/>
</g>
</svg>
