<?xml version="1.0" encoding="utf-8"?>
<!-- Generator: Adobe Illustrator 19.0.0, SVG Export Plug-In . SVG Version: 6.00 Build 0)  -->
<svg version="1.1" id="图层_1" xmlns="http://www.w3.org/2000/svg" xmlns:xlink="http://www.w3.org/1999/xlink" x="0px" y="0px"
	 viewBox="0 0 50 50" style="enable-background:new 0 0 50 50;" xml:space="preserve">
<style type="text/css">
	.st0{fill:#949494;}
</style>
<g id="XMLID_4_">
	<g id="XMLID_45_">
		<path id="XMLID_46_" class="st0" d="M43,21.8c-0.2,0.3-0.4,0.5-0.6,0.8c-4,4.7-9.9,7.6-16.5,7.6c-6.6,0-12.5-3-16.5-7.6
			c-0.2-0.3-0.4-0.5-0.6-0.8c-0.2,0.3-0.5,0.5-0.7,0.8c0.2,0.3,0.4,0.5,0.7,0.8c4.1,4.8,10.3,7.8,17.1,7.8c6.8,0,13-3,17.1-7.8
			c0.2-0.3,0.4-0.5,0.7-0.8C43.4,22.4,43.2,22.1,43,21.8z"/>
	</g>
	<g id="XMLID_5_">
		<path id="XMLID_6_" class="st0" d="M43,21.8C38.8,17,32.7,14,25.9,14c-6.8,0-13,3-17.1,7.8c-0.2,0.3-0.5,0.5-0.7,0.8
			c0.2,0.3,0.4,0.5,0.7,0.8c0.2-0.3,0.4-0.5,0.6-0.8c4-4.7,9.9-7.6,16.5-7.6c6.6,0,12.5,3,16.5,7.6c0.2,0.3,0.4,0.5,0.6,0.8
			c0.2-0.3,0.4-0.5,0.7-0.8C43.4,22.4,43.2,22.1,43,21.8z"/>
	</g>
</g>
<circle id="XMLID_3_" class="st0" cx="25.8" cy="22" r="3.3"/>
</svg>
