<?xml version="1.0" encoding="utf-8"?>
<!-- Generator: Adobe Illustrator 22.0.1, SVG Export Plug-In . SVG Version: 6.00 Build 0)  -->
<svg version="1.1" id="图层_1" xmlns="http://www.w3.org/2000/svg" xmlns:xlink="http://www.w3.org/1999/xlink" x="0px" y="0px"
	 viewBox="0 0 100 100" style="enable-background:new 0 0 100 100;" xml:space="preserve">
<style type="text/css">
	.st0{fill:#F24C4C;}
</style>
<g>
	<path class="st0" d="M49.9,100c-27.6,0-50-22.4-50-50s22.4-50,50-50s50,22.4,50,50S77.5,100,49.9,100z M49.9,4.3
		C24.7,4.3,4.2,24.8,4.2,50s20.5,45.7,45.7,45.7S95.5,75.2,95.5,50S75.1,4.3,49.9,4.3z"/>
</g>
<g>
	<path class="st0" d="M47.1,72.8c0,1.9,1.6,3.5,3.5,3.5c1.9,0,3.5-1.6,3.5-3.5s-1.6-3.5-3.5-3.5C48.7,69.3,47.1,70.9,47.1,72.8z
		 M55.1,31.7c0-2.5-2-4.5-4.5-4.5c-2.5,0-4.5,2-4.5,4.5c0,0.1,0,0.2,0,0.3h0l1,28.6c0,1.9,1.6,3.5,3.5,3.5s3.5-1.6,3.5-3.5l1-28.6h0
		C55.1,31.9,55.1,31.8,55.1,31.7L55.1,31.7z"/>
</g>
</svg>
