<?xml version="1.0" encoding="utf-8"?>
<!-- Generator: Adobe Illustrator 19.0.0, SVG Export Plug-In . SVG Version: 6.00 Build 0)  -->
<svg version="1.1" id="图层_1" xmlns="http://www.w3.org/2000/svg" xmlns:xlink="http://www.w3.org/1999/xlink" x="0px" y="0px"
	 viewBox="0 0 200 200" style="enable-background:new 0 0 200 200;" xml:space="preserve">
<style type="text/css">
	.st0{fill:#FCEE21;}
	.st1{fill:#3E3A39;}
	.st2{fill:#F8B62D;}
	.st3{fill:#47B7F8;}
	.st4{fill:#F7E42F;}
	.st5{fill:#FAEE00;}
	.st6{fill:none;}
	.st7{fill:#FFFFFF;}
</style>
<path id="XMLID_173_" class="st0" d="M103.3,106.6c-19.3,0-35,15.8-35,35.3h70C138.3,122.4,122.6,106.6,103.3,106.6L103.3,106.6z
	 M103.3,106.6"/>
<path id="XMLID_170_" class="st1" d="M99,143.4H61.4c-0.8,0-1.4-0.6-1.4-1.4c0-17.7,11.3-33.1,28.2-38.4c0.7-0.2,1.5,0.2,1.8,0.9
	c0.2,0.7-0.2,1.5-0.9,1.8c-15.3,4.8-25.6,18.5-26.2,34.3H99c0.8,0,1.4,0.6,1.4,1.4C100.4,142.7,99.8,143.4,99,143.4L99,143.4z
	 M99,143.4"/>
<path id="XMLID_166_" class="st2" d="M107.7,66.6c4.5,3.8,7.4,9.5,7.4,15.8c0,11.4-9.2,20.6-20.6,20.6c-2.4,0-4.8-0.4-6.9-1.2
	c3.6,3,8.2,4.8,13.2,4.8c11.4,0,20.6-9.2,20.6-20.6C121.4,77.1,115.7,69.4,107.7,66.6L107.7,66.6z M107.7,66.6"/>
<path id="XMLID_163_" class="st0" d="M115.1,82.4c0-6.4-2.9-12-7.4-15.8c-2.2-0.8-4.5-1.2-6.9-1.2c-11.4,0-20.6,9.2-20.6,20.6
	c0,6.4,2.9,12,7.4,15.8c2.2,0.8,4.5,1.2,6.9,1.2C105.9,103,115.1,93.8,115.1,82.4L115.1,82.4z M115.1,82.4"/>
<path id="XMLID_160_" class="st1" d="M99,108c-13.1,0-23.8-10.7-23.8-23.8c0-3.1,0.6-6.2,1.8-9.1c0.3-0.7,1.1-1.1,1.8-0.8
	c0.7,0.3,1.1,1.1,0.8,1.8c-1.1,2.5-1.6,5.2-1.6,8c0,11.6,9.4,21,21,21c11.6,0,21-9.4,21-21c0-11.6-9.4-21-21-21
	c-4.6,0-8.9,1.4-12.6,4.2c-0.6,0.5-1.5,0.3-2-0.3c-0.5-0.6-0.3-1.5,0.3-2c4.1-3.1,9.1-4.7,14.3-4.7c13.1,0,23.8,10.7,23.8,23.8
	C122.8,97.3,112.2,108,99,108L99,108z M99,108"/>
<path id="XMLID_157_" class="st1" d="M80.3,72.4c-0.2,0-0.5-0.1-0.7-0.2c-0.7-0.4-0.9-1.2-0.6-1.9c0.4-0.7,1-1.4,1.6-1.9
	c0.6-0.5,1.5-0.3,2,0.3c0.5,0.6,0.3,1.5-0.3,2c-0.3,0.3-0.6,0.6-0.8,1C81.3,72.2,80.8,72.4,80.3,72.4L80.3,72.4z M80.3,72.4"/>
<path id="XMLID_153_" class="st3" d="M62.8,95.8c-2.1,0-3.8-1.7-3.8-3.8c0-2.1,1.7-3.8,3.8-3.8c2.1,0,3.8,1.7,3.8,3.8
	C66.6,94.1,64.9,95.8,62.8,95.8L62.8,95.8z M62.8,90.1c-1.1,0-1.9,0.9-1.9,1.9c0,1.1,0.9,1.9,1.9,1.9c1.1,0,1.9-0.9,1.9-1.9
	C64.7,91,63.8,90.1,62.8,90.1L62.8,90.1z M62.8,90.1"/>
<path id="XMLID_149_" class="st4" d="M59.8,73.3h-1.7v-1.7c0-0.4-0.4-0.8-0.8-0.8c-0.4,0-0.8,0.4-0.8,0.8v1.7h-1.7
	c-0.4,0-0.8,0.4-0.8,0.8c0,0.4,0.4,0.8,0.8,0.8h1.7v1.7c0,0.4,0.4,0.8,0.8,0.8c0.4,0,0.8-0.4,0.8-0.8v-1.7h1.7
	c0.4,0,0.8-0.4,0.8-0.8C60.6,73.6,60.2,73.3,59.8,73.3L59.8,73.3z M151.6,73.4h-1.7v-1.7c0-0.4-0.4-0.8-0.8-0.8
	c-0.4,0-0.8,0.4-0.8,0.8v1.7h-1.7c-0.4,0-0.8,0.4-0.8,0.8s0.4,0.8,0.8,0.8h1.7v1.7c0,0.4,0.4,0.8,0.8,0.8c0.4,0,0.8-0.4,0.8-0.8V75
	h1.7c0.4,0,0.8-0.4,0.8-0.8S152,73.4,151.6,73.4L151.6,73.4z M151.6,73.4"/>
<path id="XMLID_146_" class="st2" d="M146.5,90.2h-1.9v-1.9c0-0.5-0.4-0.9-0.9-0.9c-0.5,0-0.9,0.4-0.9,0.9v1.9h-1.9
	c-0.5,0-0.9,0.4-0.9,0.9c0,0.5,0.4,0.9,0.9,0.9h1.9V94c0,0.5,0.4,0.9,0.9,0.9c0.5,0,0.9-0.4,0.9-0.9v-1.9h1.9c0.5,0,0.9-0.4,0.9-0.9
	C147.4,90.6,147,90.2,146.5,90.2L146.5,90.2z M146.5,90.2"/>
<path id="XMLID_143_" class="st2" d="M71.1,64.8c0,0.8,0.6,1.4,1.4,1.4s1.4-0.6,1.4-1.4s-0.6-1.4-1.4-1.4S71.1,64,71.1,64.8
	L71.1,64.8z M71.1,64.8"/>
<path id="XMLID_140_" class="st2" d="M133.6,72.2c0,0.7,0.4,1.3,0.9,1.6c0.6,0.3,1.3,0.3,1.9,0c0.6-0.3,0.9-1,0.9-1.6
	c0-0.7-0.4-1.3-0.9-1.6c-0.6-0.3-1.3-0.3-1.9,0C133.9,70.9,133.6,71.5,133.6,72.2L133.6,72.2z M133.6,72.2"/>
<path id="XMLID_137_" class="st4" d="M121.7,53.7c0,0.7,0.4,1.3,0.9,1.6c0.6,0.3,1.3,0.3,1.9,0c0.6-0.3,0.9-1,0.9-1.6
	c0-0.7-0.4-1.3-0.9-1.6c-0.6-0.3-1.3-0.3-1.9,0C122,52.4,121.7,53,121.7,53.7L121.7,53.7z M121.7,53.7"/>
<path id="XMLID_133_" class="st2" d="M100.6,54.5c-2.1,0-3.8-1.7-3.8-3.8c0-2.1,1.7-3.8,3.8-3.8c2.1,0,3.8,1.7,3.8,3.8
	C104.4,52.8,102.7,54.5,100.6,54.5L100.6,54.5z M100.6,48.8c-1.1,0-1.9,0.9-1.9,1.9c0,1.1,0.9,1.9,1.9,1.9c1.1,0,1.9-0.9,1.9-1.9
	C102.5,49.6,101.7,48.8,100.6,48.8L100.6,48.8z M100.6,48.8"/>
<path id="XMLID_123_" class="st5" d="M78.1,45.5c-0.2-0.2-0.5-0.2-0.7,0c-0.1,0.1-0.1,0.2-0.1,0.4c0,0.1,0,0.3,0.1,0.4l1.7,1.7
	c0.1,0.1,0.2,0.1,0.4,0.1c0.1,0,0.3,0,0.4-0.1c0.2-0.2,0.2-0.5,0-0.7L78.1,45.5z M82.5,49.9c-0.1-0.1-0.2-0.1-0.4-0.1
	c-0.1,0-0.3,0-0.4,0.1c-0.2,0.2-0.2,0.5,0,0.7l1.7,1.7c0.1,0.1,0.2,0.1,0.4,0.1c0.1,0,0.3,0,0.4-0.1c0.1-0.1,0.1-0.2,0.1-0.4
	c0-0.1,0-0.3-0.1-0.4L82.5,49.9z M82.1,48c0.1,0,0.3,0,0.4-0.1l1.7-1.7c0.1-0.1,0.1-0.2,0.1-0.4c0-0.1,0-0.3-0.1-0.4
	c-0.2-0.2-0.5-0.2-0.7,0l-1.7,1.7c-0.2,0.2-0.2,0.5,0,0.7C81.9,48,82,48,82.1,48L82.1,48z M79,49.9l-1.7,1.7
	c-0.1,0.1-0.1,0.2-0.1,0.4c0,0.1,0,0.3,0.1,0.4c0.1,0.1,0.2,0.1,0.4,0.1c0.1,0,0.3,0,0.4-0.1l1.7-1.7c0.2-0.2,0.2-0.5,0-0.7
	C79.6,49.7,79.2,49.7,79,49.9L79,49.9z M79.4,48.9c0-0.3-0.2-0.5-0.5-0.5h-2.4c-0.3,0-0.5,0.2-0.5,0.5c0,0.3,0.2,0.5,0.5,0.5h2.4
	C79.1,49.4,79.4,49.2,79.4,48.9L79.4,48.9z M85.1,48.4h-2.4c-0.3,0-0.5,0.2-0.5,0.5c0,0.3,0.2,0.5,0.5,0.5h2.4
	c0.3,0,0.5-0.2,0.5-0.5C85.6,48.6,85.4,48.4,85.1,48.4L85.1,48.4z M80.8,44.1c-0.3,0-0.5,0.2-0.5,0.5V47c0,0.3,0.2,0.5,0.5,0.5
	c0.3,0,0.5-0.2,0.5-0.5v-2.4C81.3,44.3,81.1,44.1,80.8,44.1L80.8,44.1z M80.8,50.3c-0.3,0-0.5,0.2-0.5,0.5v2.4
	c0,0.3,0.2,0.5,0.5,0.5c0.3,0,0.5-0.2,0.5-0.5v-2.4C81.3,50.5,81.1,50.3,80.8,50.3L80.8,50.3z M80.8,50.3"/>
<path id="XMLID_119_" class="st1" d="M155.6,143.4h-3.4c-0.8,0-1.4-0.6-1.4-1.4c0-0.8,0.6-1.4,1.4-1.4h3.4c0.8,0,1.4,0.6,1.4,1.4
	C157,142.7,156.4,143.4,155.6,143.4L155.6,143.4z M51.9,143.4h-4.3c-0.8,0-1.4-0.6-1.4-1.4c0-0.8,0.6-1.4,1.4-1.4h4.3
	c0.8,0,1.4,0.6,1.4,1.4C53.3,142.7,52.7,143.4,51.9,143.4L51.9,143.4z M51.9,143.4"/>
<rect id="XMLID_118_" x="46.2" y="44" class="st6" width="110.8" height="104.4"/>
<path id="XMLID_115_" class="st1" d="M146.9,143.4H56.3c-0.8,0-1.4-0.6-1.4-1.4c0-0.8,0.6-1.4,1.4-1.4h90.5c0.8,0,1.4,0.6,1.4,1.4
	C148.3,142.7,147.6,143.4,146.9,143.4L146.9,143.4z M146.9,143.4"/>
<path id="XMLID_112_" class="st7" d="M109.1,129.2c0,9.8,7.9,17.7,17.7,17.7c9.8,0,17.7-7.9,17.7-17.7c0-9.8-7.9-17.7-17.7-17.7
	C117.1,111.4,109.1,119.4,109.1,129.2L109.1,129.2z M109.1,129.2"/>
<path id="XMLID_108_" class="st1" d="M126.1,148.3c-11.5,0-20.9-9.4-20.9-20.9c0-11.5,9.4-20.9,20.9-20.9c11.5,0,20.9,9.4,20.9,20.9
	C147,139,137.6,148.3,126.1,148.3L126.1,148.3z M126.1,109.3c-10,0-18.1,8.1-18.1,18.1c0,10,8.1,18.1,18.1,18.1
	c10,0,18.1-8.1,18.1-18.1C144.2,117.4,136,109.3,126.1,109.3L126.1,109.3z M126.1,109.3"/>
<path id="XMLID_105_" class="st1" d="M124.6,137.5c-0.3,0-0.7-0.1-0.9-0.4l-9.1-8.1c-0.6-0.5-0.6-1.4-0.1-2c0.5-0.6,1.4-0.6,2-0.1
	l7.9,7.1l10.8-14.1c0.5-0.6,1.4-0.7,2-0.3c0.6,0.5,0.7,1.4,0.3,2L125.7,137c-0.2,0.3-0.6,0.5-1,0.5
	C124.7,137.5,124.6,137.5,124.6,137.5L124.6,137.5z M124.6,137.5"/>
</svg>
