<?xml version="1.0" encoding="utf-8"?>
<!-- Generator: Adobe Illustrator 19.2.1, SVG Export Plug-In . SVG Version: 6.00 Build 0)  -->
<svg version="1.1" id="图层_1" xmlns="http://www.w3.org/2000/svg" xmlns:xlink="http://www.w3.org/1999/xlink" x="0px" y="0px"
	 viewBox="0 0 50 50" style="enable-background:new 0 0 50 50;" xml:space="preserve">
<style type="text/css">
	.st0{fill:#949494;}
</style>
<g id="XMLID_4_">
	<path class="st0" d="M34.9,43.7H14.4c-2,0-3.5-1.5-3.5-3.5V9c0-2,1.5-3.5,3.5-3.5H35c1.9,0,3.5,1.6,3.5,3.5v31.2
		C38.4,42.2,36.8,43.7,34.9,43.7z M14.4,6.5c-1.4,0-2.5,1.1-2.5,2.5v31.2c0,1.4,1.1,2.5,2.5,2.5h20.5c1.4,0,2.5-1.1,2.6-2.5l0-31.2
		c0-1.4-1.1-2.5-2.5-2.5H14.4z"/>
</g>
<g id="XMLID_5_">
	<path class="st0" d="M31,12H18c-0.3,0-0.5-0.2-0.5-0.5S17.7,11,18,11h13c0.3,0,0.5,0.2,0.5,0.5S31.3,12,31,12z"/>
</g>
<g id="XMLID_6_">
	<rect x="11.5" y="34" class="st0" width="26" height="1"/>
</g>
<g id="XMLID_3_">
	<circle class="st0" cx="24.6" cy="38.4" r="1.2"/>
</g>
</svg>
