<?xml version="1.0" encoding="utf-8"?>
<!-- Generator: Adobe Illustrator 19.2.1, SVG Export Plug-In . SVG Version: 6.00 Build 0)  -->
<svg version="1.1" id="图层_1" xmlns="http://www.w3.org/2000/svg" xmlns:xlink="http://www.w3.org/1999/xlink" x="0px" y="0px"
	 viewBox="0 0 50 50" style="enable-background:new 0 0 50 50;" xml:space="preserve">
<style type="text/css">
	.st0{fill:#949494;}
</style>
<g id="XMLID_5_">
	<path class="st0" d="M37.3,44.7H13.1c-1.9,0-3.5-1.6-3.5-3.5V25.3c0-1.9,1.6-3.5,3.5-3.5h24.2c1.9,0,3.5,1.6,3.5,3.5v15.9
		C40.8,43.1,39.2,44.7,37.3,44.7z M13.1,22.8c-1.3,0-2.5,1.2-2.5,2.5v15.9c0,1.4,1.1,2.5,2.5,2.5h24.2c1.3,0,2.5-1.2,2.5-2.5V25.3
		c0-1.3-1.2-2.5-2.5-2.5H13.1z"/>
</g>
<g id="XMLID_4_">
	<path class="st0" d="M37,22h-1v-4c0-6.1-4.9-11-11-11s-11,4.8-11,10.8V22h-1v-4.2C13,11.3,18.4,6,25,6c6.6,0,12,5.4,12,12V22z"/>
</g>
<g id="XMLID_3_">
	<path class="st0" d="M25.5,38.5c-0.3,0-0.5-0.2-0.5-0.5v-9c0-0.3,0.2-0.5,0.5-0.5S26,28.7,26,29v9C26,38.3,25.8,38.5,25.5,38.5z"/>
</g>
</svg>
