<?xml version="1.0" encoding="utf-8"?>
<!-- Generator: Adobe Illustrator 22.0.1, SVG Export Plug-In . SVG Version: 6.00 Build 0)  -->
<svg version="1.1" id="图层_1" xmlns="http://www.w3.org/2000/svg" xmlns:xlink="http://www.w3.org/1999/xlink" x="0px" y="0px"
	 viewBox="0 0 100 100" style="enable-background:new 0 0 100 100;" xml:space="preserve">
<style type="text/css">
	.st0{fill:#009686;}
</style>
<g>
	<path class="st0" d="M50.1,100.7c-27.6,0-50-22.4-50-50s22.4-50,50-50c27.6,0,50,22.4,50,50S77.7,100.7,50.1,100.7z M50.1,5.2
		C24.9,5.2,4.5,25.7,4.5,50.7c0,25.1,20.5,45.5,45.6,45.5c25.1,0,45.6-20.4,45.6-45.5C95.7,25.7,75.2,5.2,50.1,5.2z"/>
</g>
<path class="st0" d="M20,51.1c-0.2-0.3-0.2-0.7,0-0.9l3.2-3.1c0.3-0.2,0.7-0.3,1,0l18.1,15.4c0.3,0.2,0.7,0.2,1,0l39.2-34
	c0.3-0.2,0.6-0.2,0.7,0.2l1.2,3c0.1,0.3,0,0.8-0.2,1.1L43.1,74.9c-0.2,0.3-0.7,0.3-0.9,0L20,51.1z"/>
</svg>
