<?xml version="1.0" encoding="utf-8"?>
<!-- Generator: Adobe Illustrator 22.0.1, SVG Export Plug-In . SVG Version: 6.00 Build 0)  -->
<svg version="1.1" id="图层_1" xmlns="http://www.w3.org/2000/svg" xmlns:xlink="http://www.w3.org/1999/xlink" x="0px" y="0px"
	 viewBox="0 0 100 100" style="enable-background:new 0 0 100 100;" xml:space="preserve">
<style type="text/css">
	.st0{fill:#009686;}
</style>
<g>
	<path class="st0" d="M50.4,99.8c-27.6,0-50-22.4-50-50s22.4-50,50-50c27.6,0,50,22.4,50,50S78,99.8,50.4,99.8z M50.4,4.1
		C25.2,4.1,4.7,24.6,4.7,49.8c0,25.2,20.5,45.7,45.7,45.7c25.2,0,45.7-20.5,45.7-45.7C96.1,24.6,75.6,4.1,50.4,4.1z"/>
</g>
<g>
	<path class="st0" d="M30.7,73.1c-1.2,0-2.1-1-2.1-2.2c0-1.2,0.9-2.2,2.1-2.2h2.6v-3.7c0-5.9,2.9-11.4,7.7-14.5
		c-4.8-3.1-7.7-8.6-7.7-14.5v-4.7h-2.6c-1.2,0-2.1-1-2.1-2.2c0-1.2,0.9-2.2,2.1-2.2h38c1.2,0,2.1,1,2.1,2.2s-0.9,2.2-2.1,2.2h-2.4
		V36c0,5.9-2.9,11.4-7.7,14.5c4.8,3.1,7.7,8.6,7.7,14.5v3.7h2.4c1.2,0,2.1,1,2.1,2.2c0,1.2-0.9,2.2-2.1,2.2H30.7z M47.6,48.9
		c0.3,0.3,0.6,0.7,0.7,1.1c0.1,0.5,0.1,1-0.1,1.4l0,0.1l-0.1,0.2c0,0.1-0.1,0.1-0.1,0.2l-0.1,0.1L47.8,52L47.8,52
		c-0.1,0.1-0.2,0.2-0.2,0.2l-0.1,0.1c-0.2,0.2-0.5,0.3-0.8,0.3c-5.4,1.5-9.2,6.6-9.2,12.4v3.7H62v-3.7c0-5.9-3.8-11-9.3-12.4l-0.1,0
		l-0.1,0l-0.1,0c-0.3-0.1-0.5-0.3-0.7-0.5L51.7,52l-0.1-0.1l-0.1-0.1v0c-0.1-0.1-0.1-0.2-0.1-0.3l0-0.1l0-0.1l0-0.1l0-0.1l0-0.2
		l0-0.1c-0.1-1.1,0.6-2.1,1.6-2.4C58.2,47,62,41.9,62,36v-4.7H37.5V36c0,5.9,3.8,11,9.3,12.4c0.3,0.1,0.5,0.2,0.7,0.4L47.6,48.9"/>
</g>
</svg>
