<?xml version="1.0" encoding="utf-8"?>
<!-- Generator: Adobe Illustrator 19.2.1, SVG Export Plug-In . SVG Version: 6.00 Build 0)  -->
<svg version="1.1" id="图层_1" xmlns="http://www.w3.org/2000/svg" xmlns:xlink="http://www.w3.org/1999/xlink" x="0px" y="0px"
	 viewBox="0 0 50 50" style="enable-background:new 0 0 50 50;" xml:space="preserve">
<style type="text/css">
	.st0{fill:#949494;}
</style>
<g id="XMLID_6_">
	<path class="st0" d="M42.5,41.2H8c-1.9,0-3.5-1.6-3.5-3.5v-24c0-2,1.5-3.5,3.5-3.5h34.5c2,0,3.5,1.5,3.5,3.5v24
		C46,39.6,44.4,41.2,42.5,41.2z M8,11.2c-1.4,0-2.5,1.1-2.5,2.5v24c0,1.4,1.1,2.5,2.5,2.5h34.5c1.4,0,2.5-1.1,2.5-2.5v-24
		c0-1.4-1.1-2.5-2.5-2.5H8z"/>
</g>
<g id="XMLID_5_">
	<path class="st0" d="M25.4,27c-0.9,0-1.8-0.4-2.5-1L8.1,11.1l0.7-0.7l14.8,14.9c0.5,0.5,1.2,0.7,1.8,0.8c0.6,0,1.2-0.3,1.6-0.7
		L42,10.3l0.7,0.7L27.9,26C27.3,26.6,26.4,27,25.4,27C25.5,27,25.5,27,25.4,27z"/>
</g>
<g id="XMLID_4_">
	<path class="st0" d="M9.5,33.8c-0.1,0-0.3,0-0.4-0.1c-0.2-0.2-0.2-0.5,0-0.7l10.7-10.7c0.2-0.2,0.5-0.2,0.7,0s0.2,0.5,0,0.7
		L9.9,33.6C9.8,33.7,9.6,33.8,9.5,33.8z"/>
</g>
<g id="XMLID_3_">
	<path class="st0" d="M42,33.8c-0.1,0-0.3,0-0.4-0.1L30.9,22.9c-0.2-0.2-0.2-0.5,0-0.7s0.5-0.2,0.7,0l10.7,10.7
		c0.2,0.2,0.2,0.5,0,0.7C42.2,33.7,42.1,33.8,42,33.8z"/>
</g>
</svg>
