<?xml version="1.0" encoding="utf-8"?>
<!-- Generator: Adobe Illustrator 19.2.1, SVG Export Plug-In . SVG Version: 6.00 Build 0)  -->
<svg version="1.1" id="图层_1" xmlns="http://www.w3.org/2000/svg" xmlns:xlink="http://www.w3.org/1999/xlink" x="0px" y="0px"
	 viewBox="0 0 50 50" style="enable-background:new 0 0 50 50;" xml:space="preserve">
<style type="text/css">
	.st0{fill:#949494;}
</style>
<g id="XMLID_4_">
	<path class="st0" d="M25.6,43.7l-0.2-0.1c-11.1-3.8-16-11.9-16-26.4c0.1-0.6,0.1-1.1,0.1-1.6c0-0.5,0.1-1.1,0.1-1.6l1,0.1
		c-0.1,0.5-0.1,1-0.1,1.5c0,0.5-0.1,1-0.1,1.6c0,13.9,4.7,21.7,15.2,25.3C35.8,39.1,40.9,30.2,40.8,16c0-0.9-0.1-1.7-0.2-2.6l0-0.2
		l1-0.1l0,0.2c0.1,0.9,0.2,1.8,0.2,2.7c0.1,14.7-5.3,24-16,27.7L25.6,43.7z"/>
</g>
<g id="XMLID_106_">
	<path class="st0" d="M38.2,14.5c-4.9,0-9.7-1.7-12.9-4.6c-3.3,2.9-8,4.6-12.9,4.6c-0.7,0-1.6-0.1-2.4-0.2l-0.5-0.1l0.1-1l0.5,0.1
		c0.8,0.1,1.7,0.2,2.3,0.2c4.8,0,9.4-1.7,12.6-4.7l0.3-0.3l0.3,0.3c3,2.9,7.7,4.7,12.6,4.7c1.1,0,2.2-0.1,3.2-0.2l0.1,1
		C40.5,14.4,39.3,14.5,38.2,14.5z"/>
</g>
<g id="XMLID_3_">
	<polygon class="st0" points="24,32.6 17.9,26.5 18.7,25.7 24,31.2 34.6,20.5 35.4,21.3 	"/>
</g>
</svg>
